<?xml version="1.0" encoding="utf-8"?>
<!-- Generator: Adobe Illustrator 22.0.0, SVG Export Plug-In . SVG Version: 6.00 Build 0)  -->
<svg version="1.1" id="Layer_1" xmlns="http://www.w3.org/2000/svg" xmlns:xlink="http://www.w3.org/1999/xlink" x="0px" y="0px"
	 viewBox="0 0 658.6 76.6" style="enable-background:new 0 0 658.6 76.6;" xml:space="preserve">
<style type="text/css">
	.st0{display:none;}
	.st1{fill:#C32127;}
	.st2{display:none;fill:#C32127;}
	.st3{display:none;enable-background:new    ;}
	.st4{display:inline;fill:#C32127;}
</style>
<title>logo-controltec_Notag</title>
<path d="M52.1,18.1C48.3,13,42.2,10,35.8,10c-15.1,0-25.1,12.7-25.1,28.9c0,14.9,9.4,27.7,25.1,27.7c7.2,0,13.8-3.6,17.7-9.6
	l7.7,6.1c-2,2.9-10.1,12.4-25.5,12.4C14.2,75.5,1,56.7,1,38.9C1,16.9,15.4,1,36.1,1C45,1,54.3,4.5,59.7,12L52.1,18.1z"/>
<path class="st0" d="M35.6,76.1c-21.7,0-35.2-19.3-35.2-37.2c0-22.6,14.7-38.4,35.7-38.4c10,0,19,4.2,24.1,11.3l0.3,0.4L52,18.9
	l-0.3-0.5c-3.7-5-9.6-7.9-15.8-7.9c-14.2,0-24.6,11.9-24.6,28.3c0,13.5,8.4,27.1,24.6,27.1c6.9,0.1,13.4-3.4,17.1-9.3l0.3-0.5L62,63
	l-0.3,0.4C60.2,65.6,52.1,76.1,35.6,76.1z M36.1,1.6C15.8,1.6,1.6,16.9,1.6,38.9c0,17.4,13,36.1,34.1,36.1c15,0,22.7-9,24.8-11.8
	l-6.8-5.4c-4,5.9-10.6,9.4-17.7,9.3c-14.9,0-25.7-11.8-25.7-28.2c0-17,10.8-29.4,25.7-29.4c6.4,0,12.4,2.9,16.4,7.9l6.7-5.4
	C54,5.4,45.5,1.6,36.1,1.6z"/>
<path d="M52.1,18.1C48.3,13,42.2,10,35.8,10c-15.1,0-25.1,12.7-25.1,28.9c0,14.9,9.4,27.7,25.1,27.7c7.2,0,13.8-3.6,17.7-9.6
	l7.7,6.1c-2,2.9-10.1,12.4-25.5,12.4C14.2,75.5,1,56.7,1,38.9C1,16.9,15.4,1,36.1,1C45,1,54.3,4.5,59.7,12L52.1,18.1z"/>
<path class="st0" d="M35.6,76.5C13.6,76.5,0,57,0,38.9C0,16,14.9,0,36.1,0c10.1,0,19.2,4.3,24.4,11.4l0.6,0.8L52,19.6l-0.6-0.8
	c-3.7-4.9-9.4-7.7-15.5-7.7c-14,0-24.1,11.7-24.1,27.9c0,15.7,9.9,26.7,24.1,26.7c6.8,0.1,13.2-3.3,16.8-9.1l0.6-0.9l9.3,7.4
	L62,63.7C60.5,65.8,52.3,76.5,35.6,76.5z M36.1,2C16,2,2,17.1,2,38.9C2,56,14.9,74.5,35.6,74.5c14.2,0,21.8-8.2,24.1-11.2l-6.1-4.9
	c-4.1,5.8-10.7,9.2-17.8,9.1c-15.1,0-26.1-12.1-26.1-28.7C9.7,21.6,20.7,9,35.8,9c6.3,0,12.4,2.8,16.4,7.7l6.1-4.9
	C53.5,5.7,45.2,2,36.1,2L36.1,2z"/>
<path d="M69.9,38.3C69.9,17.3,84.5,1,105,1s35.1,16.3,35.1,37.3S125.6,75.5,105,75.5S69.9,59.3,69.9,38.3 M130.5,38.3
	c0-15.5-10-28.3-25.4-28.3S79.6,22.8,79.6,38.3s10,28.3,25.4,28.3S130.4,53.8,130.5,38.3"/>
<path class="st0" d="M105,76.5c-20.6,0-36.1-16.4-36.1-38.3S84.5,0,105.1,0s36.1,16.5,36.1,38.3S125.6,76.5,105,76.5z M105,2
	C85.3,2,70.9,17.3,70.9,38.3S85.3,74.6,105,74.6s34.1-15.3,34.1-36.3S124.8,2,105,2L105,2z M105,67.5c-15.3,0-26.4-12.3-26.4-29.2
	S89.7,9,105,9s26.4,12.3,26.4,29.3S120.3,67.5,105,67.5L105,67.5z M105,11c-14.1,0-24.4,11.5-24.4,27.3S90.9,65.5,105,65.5
	s24.4-11.4,24.4-27.2S119.2,11,105,11L105,11z"/>
<polygon points="155.2,2.8 167.2,2.8 204.3,61.1 204.5,61.1 204.5,2.8 213.6,2.8 213.6,73.8 202,73.8 164.5,15.4 164.3,15.4 
	164.3,73.8 155.2,73.8 "/>
<path class="st0" d="M214.6,74.8h-13.2l-36.1-56.2v56.2h-11.1v-73h13.5L203.5,58V1.8h11.1V74.8z M202.6,72.8h10.1v-69h-7.1v58.3
	h-1.7L166.6,3.8h-10.4v68.9h7.1V14.4h1.7L202.6,72.8z"/>
<polygon points="246.9,11.8 225.2,11.8 225.2,2.8 277.8,2.8 277.8,11.8 256.1,11.8 256.1,73.8 246.9,73.8 "/>
<path class="st0" d="M257.1,74.8H246v-62h-21.7v-11h54.5v11h-21.7L257.1,74.8L257.1,74.8z M247.9,72.8h7.1v-62h21.7v-7h-50.5v7h21.7
	L247.9,72.8z"/>
<path d="M289.4,2.8h23.7c17.2,0,21.6,10.9,21.6,19.8c0.1,9.6-7.1,17.6-16.6,18.7l19.1,32.4h-11.4l-17.1-31.3h-10.2v31.3h-9.1V2.8z
	 M298.5,34.1h12c7.2,0,14.5-1.8,14.5-11.4s-7.2-11.4-14.5-11.4h-12V34.1z"/>
<path class="st0" d="M339,74.8h-13.7l-17.1-31.3h-8.6v31.3h-11.1v-73h24.7c20.4,0,22.6,14.6,22.6,20.8c0.1,9.5-6.6,17.7-16,19.5
	L339,74.8z M326.4,72.8h9.1l-19-32.2l1.5-0.2c9-1,15.8-8.7,15.7-17.7c0-5.7-2-18.9-20.6-18.9h-22.7v68.9h7.1V41.5h11.8L326.4,72.8z
	 M310.5,35.1h-13V10.2h13c3.8,0,15.5,0,15.5,12.4S314.3,35.1,310.5,35.1z M299.5,33.1h11c9.3,0,13.5-3.2,13.5-10.4
	s-4.1-10.4-13.5-10.4h-11V33.1z"/>
<path d="M345.2,38.3c0-21,14.6-37.3,35.1-37.3s35.1,16.3,35.1,37.3s-14.4,37.2-35,37.2S345.2,59.3,345.2,38.3 M405.8,38.3
	c0-15.5-10-28.3-25.4-28.3S355,22.8,355,38.3s10,28.3,25.4,28.3S405.8,53.8,405.8,38.3"/>
<path class="st0" d="M380.4,76.5c-20.6,0-36.1-16.5-36.1-38.3S359.8,0,380.4,0s36.1,16.5,36.1,38.3S401,76.5,380.4,76.5z M380.4,2
	c-19.8,0-34.1,15.3-34.1,36.3s14.4,36.3,34.1,36.3s34.1-15.3,34.1-36.3S400.1,2,380.4,2L380.4,2z M380.4,67.5
	c-15.3,0-26.4-12.2-26.4-29.2S365.1,9,380.4,9s26.4,12.3,26.4,29.3S395.7,67.5,380.4,67.5L380.4,67.5z M380.4,11
	C366.2,11,356,22.5,356,38.3s10.3,27.3,24.4,27.3s24.4-11.5,24.4-27.3S394.5,11,380.4,11L380.4,11z"/>
<polygon points="430.5,2.8 439.6,2.8 439.6,64.7 470.6,64.7 470.6,73.8 430.5,73.8 "/>
<path class="st0" d="M471.6,74.8h-42.1v-73h11.1v61.9h30.9v11.1H471.6z M431.5,72.8h38.1v-7h-30.9v-62h-7.1v69H431.5z"/>
<polygon class="st1" points="499.8,11.8 478.1,11.8 478.1,2.8 530.6,2.8 530.6,11.8 508.9,11.8 508.9,73.8 499.8,73.8 "/>
<path class="st2" d="M510,74.8h-11.2v-62h-21.7v-11h54.5v11H510V74.8z M500.8,72.8h7.2v-62h21.7v-7h-50.6v7h21.7L500.8,72.8z"/>
<polygon class="st1" points="542.2,2.8 585.7,2.8 585.7,11.8 551.4,11.8 551.4,33 583.4,33 583.4,42 551.4,42 551.4,64.7 
	587.4,64.7 587.4,73.8 542.2,73.8 "/>
<path class="st2" d="M588.4,74.8h-47.2v-73h45.5v11h-34.4V32h32v11h-32v20.8h36.1L588.4,74.8L588.4,74.8z M543.2,72.8h43.2v-7h-36.1
	V41h32v-7h-32V10.8h34.4v-7h-41.5L543.2,72.8z"/>
<path class="st1" d="M649.2,18.1C645.4,13,639.3,10,633,10c-15.1,0-25.1,12.7-25.1,28.9c0,14.9,9.4,27.7,25.1,27.7
	c7.1,0.1,13.8-3.5,17.6-9.5l7.7,6.1c-2,2.9-10.1,12.4-25.5,12.4c-21.4,0-34.6-18.8-34.6-36.7c0-22,14.4-37.9,35.1-37.9
	c8.8,0,18.2,3.5,23.6,11L649.2,18.1z"/>
<path class="st2" d="M632.7,76.5c-22,0-35.6-19.6-35.6-37.7C597.1,16,611.9,0,633.2,0c10.1,0,19.2,4.3,24.4,11.4l0.6,0.8l-9.2,7.4
	l-0.6-0.8C644.7,13.9,639,11,633,11c-14,0-24.1,11.7-24.1,27.9c0,15.7,9.9,26.7,24.1,26.7c6.8,0.1,13.1-3.3,16.8-9.1l0.6-0.9
	l9.3,7.4l-0.5,0.8C657.6,65.8,649.4,76.5,632.7,76.5z M633.2,2c-20.1,0-34.1,15.2-34.1,36.9c0,17.2,12.9,35.7,33.6,35.7
	c14.2,0,21.8-8.2,24.1-11.2l-6.1-4.9c-4.1,5.8-10.7,9.2-17.8,9.1c-15.1,0-26.1-12-26.1-28.7c0-17.3,11-29.9,26.1-29.9
	c6.3,0,12.4,2.8,16.4,7.7l6.1-4.9C650.6,5.7,642.3,2,633.2,2L633.2,2z"/>
<text transform="matrix(1 0 0 1 665.61 13.56)" style="display:none;fill:#C32127;enable-background:new    ; font-family:'HelveticaNeue-Bold'; font-size:15px;">®</text>
</svg>
